<svg width="20" height="20" viewBox="0 0 20 20" fill="none" xmlns="http://www.w3.org/2000/svg">
<path d="M7.5 7.5C7.5 6.08333 8.58333 5 10 5C11.4167 5 12.5 6.08333 12.5 7.5C12.5 8.91667 11.4167 10 10 10C8.58333 10 7.5 8.91667 7.5 7.5ZM10 11.6667C6.16667 11.6667 5 14.4167 5 14.4167V15.8333H15V14.4167C15 14.4167 13.8333 11.6667 10 11.6667Z" fill="#33835C"/>
<path d="M15.4167 9.16667C16.5673 9.16667 17.5 8.23393 17.5 7.08333C17.5 5.93274 16.5673 5 15.4167 5C14.2661 5 13.3334 5.93274 13.3334 7.08333C13.3334 8.23393 14.2661 9.16667 15.4167 9.16667Z" fill="#33835C"/>
<path d="M15.4167 10.833C14.4167 10.833 13.6667 11.083 13.0834 11.4997C15 12.4163 15.75 13.9997 15.75 14.1663V14.2497H19.1667V13.1663C19.1667 13.083 18.25 10.833 15.4167 10.833Z" fill="#33835C"/>
<path d="M15.4167 9.16667C16.5673 9.16667 17.5 8.23393 17.5 7.08333C17.5 5.93274 16.5673 5 15.4167 5C14.2661 5 13.3334 5.93274 13.3334 7.08333C13.3334 8.23393 14.2661 9.16667 15.4167 9.16667Z" fill="#33835C"/>
<path d="M15.4167 10.833C14.4167 10.833 13.6667 11.083 13.0834 11.4997C15 12.4163 15.75 13.9997 15.75 14.1663V14.2497H19.1667V13.1663C19.1667 13.083 18.25 10.833 15.4167 10.833Z" fill="#33835C"/>
<path d="M4.58333 9.16667C5.73393 9.16667 6.66667 8.23393 6.66667 7.08333C6.66667 5.93274 5.73393 5 4.58333 5C3.43274 5 2.5 5.93274 2.5 7.08333C2.5 8.23393 3.43274 9.16667 4.58333 9.16667Z" fill="#33835C"/>
<path d="M4.58337 10.833C5.58337 10.833 6.33337 11.083 6.91671 11.4997C5.00004 12.4163 4.25004 13.9997 4.25004 14.1663V14.2497H0.833374V13.1663C0.833374 13.083 1.75004 10.833 4.58337 10.833Z" fill="#33835C"/>
</svg>
