<svg width="24" height="24" viewBox="0 0 24 24" fill="none" xmlns="http://www.w3.org/2000/svg">
<path fill-rule="evenodd" clip-rule="evenodd" d="M10.1144 20.4547H2.12031C2.06415 20.4547 2.01029 20.4323 1.97057 20.3926C1.93086 20.3529 1.90855 20.2991 1.90855 20.2429V18.7076C1.90855 17.8277 2.53643 17.0527 3.50419 16.3941C5.23219 15.2145 8.02855 14.4712 11.1733 14.4712C11.6921 14.4712 12.2014 14.4924 12.699 14.5316C12.8042 14.5422 12.9105 14.5317 13.0115 14.5007C13.1126 14.4696 13.2065 14.4188 13.2876 14.351C13.3688 14.2832 13.4356 14.1999 13.4841 14.106C13.5327 14.012 13.5619 13.9094 13.5703 13.804C13.5786 13.6986 13.5658 13.5926 13.5326 13.4922C13.4994 13.3918 13.4465 13.299 13.377 13.2194C13.3074 13.1397 13.2227 13.0747 13.1278 13.0282C13.0328 12.9817 12.9295 12.9547 12.824 12.9487C12.2748 12.9046 11.7241 12.8827 11.1733 12.883C7.65584 12.883 4.54184 13.7629 2.60843 15.0811C1.13349 16.087 0.320312 17.365 0.320312 18.7065V20.2429C0.320593 20.7201 0.51036 21.1777 0.847895 21.515C1.18543 21.8523 1.64311 22.0418 2.12031 22.0418L10.1144 22.0429C10.325 22.0429 10.527 21.9592 10.676 21.8103C10.8249 21.6614 10.9085 21.4594 10.9085 21.2488C10.9085 21.0382 10.8249 20.8362 10.676 20.6872C10.527 20.5383 10.325 20.4547 10.1144 20.4547ZM11.1733 0.323242C7.95867 0.323242 5.34972 2.93218 5.34972 6.14677C5.34972 9.36136 7.95867 11.9703 11.1733 11.9703C14.3878 11.9703 16.9968 9.36136 16.9968 6.14677C16.9968 2.93218 14.3878 0.323242 11.1733 0.323242ZM11.1733 1.91148C13.5111 1.91148 15.4085 3.80889 15.4085 6.14677C15.4085 8.48465 13.5111 10.3821 11.1733 10.3821C8.83537 10.3821 6.93796 8.48465 6.93796 6.14677C6.93796 3.80889 8.83537 1.91148 11.1733 1.91148ZM18.2165 20.3964C18.9325 20.5049 19.6644 20.4282 20.3423 20.1735C21.0202 19.9189 21.6215 19.4948 22.0889 18.9417C22.5564 18.3886 22.8743 17.725 23.0124 17.0141C23.1505 16.3032 23.1042 15.5689 22.8778 14.881C22.6515 14.1931 22.2527 13.5747 21.7194 13.0848C21.1862 12.5948 20.5363 12.2496 19.8318 12.0822C19.1272 11.9148 18.3915 11.9306 17.6949 12.1283C16.9982 12.3259 16.3638 12.6988 15.8522 13.2112C15.3828 13.6802 15.0302 14.2529 14.8229 14.8833C14.6156 15.5136 14.5594 16.1838 14.6589 16.8398L12.2003 19.2974C12.1264 19.3712 12.0678 19.4588 12.0278 19.5553C11.9879 19.6518 11.9673 19.7552 11.9674 19.8596V22.2938C11.9674 22.7322 12.3231 23.0879 12.7615 23.0879H15.1957C15.3002 23.088 15.4036 23.0674 15.5 23.0275C15.5965 22.9875 15.6842 22.9289 15.758 22.855L18.2165 20.3964ZM18.1615 18.7658C18.0271 18.73 17.8856 18.7301 17.7513 18.7662C17.6169 18.8022 17.4944 18.873 17.396 18.9712L14.8675 21.4997H13.5556V20.1878L16.0841 17.6594C16.1824 17.5609 16.2531 17.4384 16.2891 17.3041C16.3252 17.1697 16.3253 17.0282 16.2895 16.8938C16.14 16.3308 16.18 15.7342 16.4035 15.1963C16.627 14.6583 17.0214 14.2089 17.5258 13.9175C18.0302 13.6261 18.6166 13.509 19.1943 13.5842C19.7719 13.6594 20.3087 13.9228 20.7217 14.3336C21.1325 14.7466 21.3959 15.2834 21.4711 15.8611C21.5463 16.4387 21.4292 17.0251 21.1378 17.5295C20.8464 18.0339 20.397 18.4284 19.8591 18.6518C19.3211 18.8753 18.7245 18.9153 18.1615 18.7658Z" fill="white"/>
<path fill-rule="evenodd" clip-rule="evenodd" d="M18.031 17.0175C17.9203 16.9118 17.8318 16.7849 17.7708 16.6444C17.7098 16.504 17.6775 16.3527 17.6759 16.1996C17.6742 16.0465 17.7031 15.8946 17.761 15.7528C17.8188 15.611 17.9044 15.4822 18.0128 15.374C18.1211 15.2658 18.25 15.1804 18.3919 15.1227C18.5337 15.065 18.6857 15.0363 18.8388 15.0382C18.9919 15.0401 19.1431 15.0726 19.2835 15.1337C19.4239 15.1949 19.5506 15.2835 19.6563 15.3944C19.8633 15.6116 19.9771 15.9011 19.9733 16.2011C19.9696 16.5011 19.8487 16.7878 19.6364 16.9998C19.4241 17.2118 19.1373 17.3323 18.8373 17.3357C18.5373 17.339 18.2479 17.2248 18.031 17.0175Z" fill="white"/>
</svg>
