<svg width="20" height="20" viewBox="0 0 20 20" fill="none" xmlns="http://www.w3.org/2000/svg">
<path d="M13.4917 1.66699H6.50835C3.47502 1.66699 1.66669 3.47533 1.66669 6.50866V13.4837C1.66669 16.5253 3.47502 18.3337 6.50835 18.3337H13.4834C16.5167 18.3337 18.325 16.5253 18.325 13.492V6.50866C18.3334 3.47533 16.525 1.66699 13.4917 1.66699ZM13.6417 11.9587L11.7917 13.8087C11.3417 14.2587 10.7584 14.4753 10.175 14.4753C9.59169 14.4753 9.00002 14.2503 8.55835 13.8087C8.12502 13.3753 7.88335 12.8003 7.88335 12.192C7.88335 11.5837 8.12502 11.0003 8.55835 10.5753L9.73335 9.40033C9.97502 9.15866 10.375 9.15866 10.6167 9.40033C10.8584 9.64199 10.8584 10.042 10.6167 10.2837L9.44169 11.4587C9.24169 11.6587 9.13335 11.917 9.13335 12.192C9.13335 12.467 9.24169 12.7337 9.44169 12.9253C9.85002 13.3337 10.5084 13.3337 10.9167 12.9253L12.7667 11.0753C13.825 10.017 13.825 8.30033 12.7667 7.24199C11.7084 6.18366 9.99169 6.18366 8.93335 7.24199L6.91669 9.25866C6.49169 9.68366 6.25835 10.242 6.25835 10.8337C6.25835 11.4253 6.49169 11.992 6.91669 12.4087C7.15835 12.6503 7.15835 13.0503 6.91669 13.292C6.67502 13.5337 6.27502 13.5337 6.03335 13.292C5.36669 12.6503 5.00002 11.7753 5.00002 10.842C5.00002 9.90866 5.35835 9.03366 6.01669 8.37533L8.03335 6.35866C9.57502 4.81699 12.0917 4.81699 13.6334 6.35866C15.1834 7.90033 15.1834 10.417 13.6417 11.9587Z" fill="#33835C"/>
</svg>
