<svg width="20" height="20" viewBox="0 0 20 20" fill="none" xmlns="http://www.w3.org/2000/svg">
<path d="M10.0009 14.4584C10.7511 14.4584 11.3592 13.8502 11.3592 13.1C11.3592 12.3498 10.7511 11.7417 10.0009 11.7417C9.25072 11.7417 8.64258 12.3498 8.64258 13.1C8.64258 13.8502 9.25072 14.4584 10.0009 14.4584Z" fill="#33835C"/>
<path d="M15.2327 7.94163V6.89996C15.2327 4.64996 14.691 1.66663 9.99935 1.66663C5.30768 1.66663 4.76602 4.64996 4.76602 6.89996V7.94163C2.43268 8.23329 1.66602 9.41663 1.66602 12.325V13.875C1.66602 17.2916 2.70768 18.3333 6.12435 18.3333H13.8743C17.291 18.3333 18.3327 17.2916 18.3327 13.875V12.325C18.3327 9.41663 17.566 8.23329 15.2327 7.94163ZM9.99935 15.6166C8.60768 15.6166 7.48268 14.4833 7.48268 13.1C7.48268 11.7083 8.61602 10.5833 9.99935 10.5833C11.3827 10.5833 12.516 11.7166 12.516 13.1C12.516 14.4916 11.391 15.6166 9.99935 15.6166ZM6.12435 7.86663C6.05768 7.86663 5.99935 7.86663 5.93268 7.86663V6.89996C5.93268 4.45829 6.62435 2.83329 9.99935 2.83329C13.3743 2.83329 14.066 4.45829 14.066 6.89996V7.87496C13.9993 7.87496 13.941 7.87496 13.8743 7.87496H6.12435V7.86663Z" fill="#33835C"/>
</svg>
