<svg width="32" height="32" viewBox="0 0 32 32" fill="none" xmlns="http://www.w3.org/2000/svg">
<path d="M22.614 17.9041L19.914 16.4374L16.6673 29.9974H24.0007V20.2441C24.0008 19.7655 23.8721 19.2957 23.6281 18.884C23.3841 18.4723 23.0338 18.1338 22.614 17.9041ZM12.0007 5.9974C12.0007 5.33813 11.8052 4.69366 11.4389 4.1455C11.0726 3.59733 10.552 3.17009 9.94293 2.9178C9.33384 2.66551 8.66362 2.5995 8.01702 2.72811C7.37042 2.85673 6.77647 3.1742 6.3103 3.64037C5.84412 4.10655 5.52665 4.70049 5.39803 5.3471C5.26942 5.9937 5.33543 6.66392 5.58772 7.27301C5.84001 7.8821 6.26725 8.40269 6.81542 8.76896C7.36358 9.13523 8.00805 9.33073 8.66732 9.33073C9.37304 9.32355 10.0578 9.08985 10.6207 8.66406C10.9239 8.04317 11.3321 7.47933 11.8273 6.9974C11.9391 6.6757 11.9976 6.33794 12.0007 5.9974Z" fill="#33835C"/>
<path d="M16.0007 15.9974C18.578 15.9974 20.6673 13.9081 20.6673 11.3307C20.6673 8.7534 18.578 6.66406 16.0007 6.66406C13.4233 6.66406 11.334 8.7534 11.334 11.3307C11.334 13.9081 13.4233 15.9974 16.0007 15.9974Z" fill="#33835C"/>
<path d="M26.6667 5.9974C26.6667 5.11334 26.3155 4.26549 25.6904 3.64037C25.0653 3.01525 24.2174 2.66406 23.3334 2.66406C22.4493 2.66406 21.6015 3.01525 20.9764 3.64037C20.3512 4.26549 20 5.11334 20 5.9974C20.0002 6.34689 20.0587 6.6939 20.1734 7.02406C20.6661 7.49799 21.0742 8.05264 21.38 8.66406C21.9429 9.08984 22.6277 9.32355 23.3334 9.33073C23.7711 9.33073 24.2046 9.24451 24.609 9.07699C25.0134 8.90948 25.3809 8.66395 25.6904 8.35442C25.9999 8.04489 26.2455 7.67743 26.413 7.27301C26.5805 6.86859 26.6667 6.43514 26.6667 5.9974ZM10 11.3307C10.0007 11.0337 10.0253 10.7372 10.0734 10.4441C9.61826 10.5879 9.14401 10.6621 8.66671 10.6641C7.71358 10.6651 6.78297 10.3743 6.00004 9.83073L3.73338 10.6641C3.2219 10.8552 2.78142 11.1986 2.47143 11.6481C2.16145 12.0976 1.99691 12.6314 2.00004 13.1774V22.6641H6.66671V20.2441C6.6678 19.5261 6.86211 18.8216 7.22926 18.2046C7.59641 17.5876 8.12287 17.0808 8.75338 16.7374L11.4667 15.2507C10.5232 14.1625 10.0026 12.7711 10 11.3307ZM28.2667 10.6641L26 9.83073C25.2171 10.3743 24.2865 10.6651 23.3334 10.6641C22.8561 10.6621 22.3818 10.5879 21.9267 10.4441C21.9748 10.7372 21.9994 11.0337 22 11.3307C21.9975 12.7711 21.4769 14.1625 20.5334 15.2507L23.2467 16.7374C23.8772 17.0808 24.4037 17.5876 24.7708 18.2046C25.138 18.8216 25.3323 19.5261 25.3334 20.2441V22.6641H30V13.1774C30.0032 12.6314 29.8386 12.0976 29.5287 11.6481C29.2187 11.1986 28.7782 10.8552 28.2667 10.6641ZM16.6667 18.6641V24.3174L16 27.1174L15.3334 24.3174V18.6641C15.3334 18.4873 15.4036 18.3177 15.5286 18.1927C15.6537 18.0676 15.8232 17.9974 16 17.9974C16.1769 17.9974 16.3464 18.0676 16.4714 18.1927C16.5965 18.3177 16.6667 18.4873 16.6667 18.6641Z" fill="#33835C"/>
<path d="M16.6667 18.6642V24.3175L16 27.1175L15.3333 24.3175V18.6642C15.3333 18.4874 15.4036 18.3178 15.5286 18.1928C15.6536 18.0677 15.8232 17.9975 16 17.9975C16.1768 17.9975 16.3464 18.0677 16.4714 18.1928C16.5964 18.3178 16.6667 18.4874 16.6667 18.6642ZM9.38667 17.9042C8.96682 18.1339 8.61654 18.4724 8.37256 18.8841C8.12857 19.2958 7.99989 19.7656 8 20.2442V29.9975H15.3333L12.0867 16.4375L9.38667 17.9042Z" fill="#33835C"/>
</svg>
