<svg width="30" height="30" viewBox="0 0 30 30" fill="none" xmlns="http://www.w3.org/2000/svg">
<path d="M14.3333 15.3229C18.3834 15.3229 21.6667 12.0397 21.6667 7.98958C21.6667 3.9395 18.3834 0.65625 14.3333 0.65625C10.2832 0.65625 7 3.9395 7 7.98958C7 12.0397 10.2832 15.3229 14.3333 15.3229Z" fill="#33835C"/>
<path fill-rule="evenodd" clip-rule="evenodd" d="M13.9994 28.006V25.266C13.9994 24.646 14.2447 24.0527 14.6834 23.6154L17.3367 20.962C17.2691 19.4854 17.6951 18.0284 18.5474 16.8207C17.1547 16.5868 15.7448 16.4704 14.3327 16.4727C9.90335 16.4727 5.98202 17.5807 3.54735 19.2407C1.69002 20.5074 0.666019 22.1167 0.666019 23.806V25.7394C0.665492 26.0372 0.723762 26.3322 0.837486 26.6074C0.95121 26.8826 1.11815 27.1327 1.32874 27.3433C1.53932 27.5539 1.7894 27.7208 2.06465 27.8346C2.33989 27.9483 2.63488 28.0066 2.93269 28.006H13.9994Z" fill="#33835C"/>
<path fill-rule="evenodd" clip-rule="evenodd" d="M23.2014 25.9425C24.103 26.0792 25.0245 25.9826 25.8782 25.6619C26.7318 25.3412 27.4891 24.8071 28.0777 24.1106C28.6663 23.4142 29.0667 22.5785 29.2406 21.6833C29.4145 20.7882 29.3562 19.8634 29.0711 18.9972C28.7861 18.131 28.2839 17.3522 27.6124 16.7352C26.9409 16.1183 26.1225 15.6836 25.2353 15.4728C24.3481 15.2619 23.4217 15.2819 22.5445 15.5308C21.6672 15.7797 20.8683 16.2492 20.224 16.8945C19.6329 17.485 19.1889 18.2063 18.9279 19C18.6668 19.7937 18.5961 20.6377 18.7214 21.4639L15.6254 24.5585C15.5323 24.6514 15.4585 24.7618 15.4082 24.8833C15.3578 25.0048 15.332 25.135 15.332 25.2665V28.3319C15.332 28.8839 15.78 29.3319 16.332 29.3319H19.3974C19.5289 29.3319 19.6591 29.306 19.7806 29.2557C19.9021 29.2054 20.0124 29.1316 20.1054 29.0385L23.2014 25.9425ZM22.9747 21.6892C22.8353 21.556 22.7239 21.3962 22.6471 21.2194C22.5703 21.0425 22.5296 20.852 22.5275 20.6592C22.5254 20.4664 22.5618 20.2751 22.6347 20.0965C22.7075 19.918 22.8154 19.7558 22.9518 19.6196C23.0882 19.4833 23.2505 19.3757 23.4292 19.3031C23.6078 19.2304 23.7992 19.1943 23.992 19.1966C24.1848 19.199 24.3752 19.2399 24.552 19.317C24.7287 19.394 24.8883 19.5056 25.0214 19.6452C25.282 19.9187 25.4253 20.2833 25.4206 20.6611C25.416 21.0389 25.2637 21.3998 24.9964 21.6668C24.729 21.9338 24.3679 22.0856 23.9901 22.0898C23.6123 22.094 23.2479 21.9502 22.9747 21.6892Z" fill="#33835C"/>
</svg>
