<svg width="32" height="32" viewBox="0 0 32 32" fill="none" xmlns="http://www.w3.org/2000/svg">
<path d="M27.3806 17.0808H24.9059C25.1581 17.7714 25.2959 18.5167 25.2959 19.2935V28.6467C25.2959 28.9705 25.2396 29.2814 25.137 29.5705H29.2283C30.7566 29.5705 31.9999 28.3272 31.9999 26.7989V21.7001C32 19.153 29.9277 17.0808 27.3806 17.0808ZM6.70406 19.2936C6.70406 18.5167 6.84187 17.7715 7.09412 17.0808H4.61938C2.07225 17.0808 0 19.1531 0 21.7002V26.799C0 28.3273 1.24331 29.5707 2.77163 29.5707H6.863C6.7577 29.274 6.70394 28.9615 6.70406 28.6467V19.2936ZM18.8288 14.6742H13.1712C10.6241 14.6742 8.55181 16.7465 8.55181 19.2936V28.6467C8.55181 29.1569 8.96544 29.5706 9.47569 29.5706H22.5243C23.0346 29.5706 23.4482 29.157 23.4482 28.6467V19.2936C23.4482 16.7465 21.3759 14.6742 18.8288 14.6742ZM16 2.42578C12.9368 2.42578 10.4446 4.91791 10.4446 7.98122C10.4446 10.059 11.5914 11.8737 13.2851 12.8265C14.0884 13.2783 15.0145 13.5366 16 13.5366C16.9855 13.5366 17.9116 13.2783 18.7149 12.8265C20.4086 11.8737 21.5554 10.059 21.5554 7.98122C21.5554 4.91797 19.0632 2.42578 16 2.42578ZM6.24487 7.60384C3.95394 7.60384 2.09019 9.46759 2.09019 11.7585C2.09019 14.0495 3.95394 15.9132 6.24487 15.9132C6.80785 15.9137 7.36498 15.7991 7.88206 15.5765C8.75119 15.2023 9.46781 14.5399 9.91125 13.7102C10.2325 13.1099 10.4002 12.4394 10.3996 11.7585C10.3996 9.46766 8.53581 7.60384 6.24487 7.60384ZM25.7551 7.60384C23.4642 7.60384 21.6004 9.46759 21.6004 11.7585C21.5998 12.4394 21.7675 13.1099 22.0888 13.7102C22.5322 14.54 23.2488 15.2023 24.1179 15.5765C24.635 15.7991 25.1922 15.9137 25.7551 15.9132C28.0461 15.9132 29.9098 14.0495 29.9098 11.7585C29.9098 9.46759 28.0461 7.60384 25.7551 7.60384Z" fill="#33835C"/>
</svg>
