<svg width="32" height="32" viewBox="0 0 32 32" fill="none" xmlns="http://www.w3.org/2000/svg">
<path d="M13.8612 17.0659H4.29323C3.70656 17.0659 3.22656 17.5459 3.22656 18.1326V27.7326C3.22656 28.3192 3.70656 28.7992 4.29323 28.7992H13.8612C14.4479 28.7992 14.9279 28.3192 14.9279 27.7326V18.1326C14.9279 17.5459 14.4479 17.0659 13.8612 17.0659ZM12.2612 25.2152C12.2612 25.7166 11.8559 26.1326 11.3439 26.1326H6.81056C6.6901 26.1326 6.57081 26.1088 6.45951 26.0627C6.34822 26.0166 6.24709 25.9491 6.16191 25.8639C6.07673 25.7787 6.00916 25.6776 5.96306 25.5663C5.91696 25.455 5.89323 25.3357 5.89323 25.2152V20.6499C5.89323 20.1486 6.29856 19.7326 6.81056 19.7326H11.3439C11.8559 19.7326 12.2612 20.1486 12.2612 20.6499V25.2152ZM27.7066 17.0659H18.1279C17.5412 17.0659 17.0612 17.5459 17.0612 18.1326V27.7326C17.0612 28.3192 17.5412 28.7992 18.1279 28.7992H27.7066C28.2932 28.7992 28.7732 28.3192 28.7732 27.7326V18.1326C28.7732 17.5459 28.2932 17.0659 27.7066 17.0659ZM26.1066 25.2152C26.1066 25.7166 25.7012 26.1326 25.1892 26.1326H20.6452C20.4019 26.1326 20.1686 26.0359 19.9966 25.8639C19.8245 25.6918 19.7279 25.4585 19.7279 25.2152V20.6499C19.7279 20.1486 20.1332 19.7326 20.6452 19.7326H25.1892C25.7012 19.7326 26.1066 20.1486 26.1066 20.6499V25.2152ZM13.8612 3.19922H4.29323C3.70656 3.19922 3.22656 3.67922 3.22656 4.26589V13.8659C3.22656 14.4526 3.70656 14.9326 4.29323 14.9326H13.8612C14.4479 14.9326 14.9279 14.4526 14.9279 13.8659V4.26589C14.9279 3.67922 14.4479 3.19922 13.8612 3.19922ZM12.2612 11.3486C12.2612 11.8499 11.8559 12.2659 11.3439 12.2659H6.81056C6.6901 12.2659 6.57081 12.2422 6.45951 12.1961C6.34822 12.15 6.24709 12.0824 6.16191 11.9972C6.07673 11.912 6.00916 11.8109 5.96306 11.6996C5.91696 11.5883 5.89323 11.469 5.89323 11.3486V6.78322C5.89323 6.28189 6.29856 5.86589 6.81056 5.86589H11.3439C11.8559 5.86589 12.2612 6.28189 12.2612 6.78322V11.3486ZM28.7732 4.26589V13.8659C28.7732 14.4526 28.2932 14.9326 27.7066 14.9326H18.1279C17.5412 14.9326 17.0612 14.4526 17.0612 13.8659V4.26589C17.0612 3.67922 17.5412 3.19922 18.1279 3.19922H27.7066C28.2932 3.19922 28.7732 3.67922 28.7732 4.26589Z" fill="#33835C"/>
</svg>
