<svg width="32" height="32" viewBox="0 0 32 32" fill="none" xmlns="http://www.w3.org/2000/svg">
<path d="M22.666 4.66699H9.33268C5.33268 4.66699 2.66602 6.66699 2.66602 11.3337V20.667C2.66602 25.3337 5.33268 27.3337 9.33268 27.3337H22.666C26.666 27.3337 29.3327 25.3337 29.3327 20.667V11.3337C29.3327 6.66699 26.666 4.66699 22.666 4.66699ZM10.666 23.667H6.66602C6.11935 23.667 5.66602 23.2137 5.66602 22.667C5.66602 22.1203 6.11935 21.667 6.66602 21.667H10.666C11.2127 21.667 11.666 22.1203 11.666 22.667C11.666 23.2137 11.2127 23.667 10.666 23.667ZM15.9993 20.0003C13.786 20.0003 11.9993 18.2137 11.9993 16.0003C11.9993 13.787 13.786 12.0003 15.9993 12.0003C18.2127 12.0003 19.9993 13.787 19.9993 16.0003C19.9993 18.2137 18.2127 20.0003 15.9993 20.0003ZM25.3327 10.3337H21.3327C20.786 10.3337 20.3327 9.88033 20.3327 9.33366C20.3327 8.78699 20.786 8.33366 21.3327 8.33366H25.3327C25.8793 8.33366 26.3327 8.78699 26.3327 9.33366C26.3327 9.88033 25.8793 10.3337 25.3327 10.3337Z" fill="#33835C"/>
</svg>
