<svg width="20" height="20" viewBox="0 0 20 20" fill="none" xmlns="http://www.w3.org/2000/svg">
<path d="M13.3334 3.54199C13.3334 4.57533 12.4917 5.41699 11.4584 5.41699H8.54169C8.02502 5.41699 7.55835 5.20866 7.21669 4.86699C6.87502 4.52533 6.66669 4.05866 6.66669 3.54199C6.66669 2.50866 7.50835 1.66699 8.54169 1.66699H11.4584C11.975 1.66699 12.4417 1.87533 12.7834 2.21699C13.125 2.55866 13.3334 3.02533 13.3334 3.54199Z" fill="#33835C"/>
<path d="M15.6916 4.19127C15.5 4.03294 15.2833 3.90794 15.05 3.81627C14.8083 3.7246 14.5666 3.91627 14.5166 4.16627C14.2333 5.59127 12.975 6.66627 11.4583 6.66627H8.54165C7.70831 6.66627 6.92498 6.34127 6.33331 5.7496C5.89998 5.31627 5.59998 4.76627 5.48331 4.1746C5.43331 3.9246 5.18331 3.7246 4.94165 3.8246C3.97498 4.21627 3.33331 5.0996 3.33331 6.8746V14.9996C3.33331 17.4996 4.82498 18.3329 6.66665 18.3329H13.3333C15.175 18.3329 16.6666 17.4996 16.6666 14.9996V6.8746C16.6666 5.51627 16.2916 4.68294 15.6916 4.19127ZM6.66665 10.2079H9.99998C10.3416 10.2079 10.625 10.4913 10.625 10.8329C10.625 11.1746 10.3416 11.4579 9.99998 11.4579H6.66665C6.32498 11.4579 6.04165 11.1746 6.04165 10.8329C6.04165 10.4913 6.32498 10.2079 6.66665 10.2079ZM13.3333 14.7913H6.66665C6.32498 14.7913 6.04165 14.5079 6.04165 14.1663C6.04165 13.8246 6.32498 13.5413 6.66665 13.5413H13.3333C13.675 13.5413 13.9583 13.8246 13.9583 14.1663C13.9583 14.5079 13.675 14.7913 13.3333 14.7913Z" fill="#33835C"/>
</svg>
