<svg width="16" height="16" viewBox="0 0 16 16" fill="none" xmlns="http://www.w3.org/2000/svg">
<path d="M1.71997 12.6735L1.70664 12.6868C1.52664 12.2935 1.4133 11.8468 1.36664 11.3535C1.4133 11.8402 1.53997 12.2802 1.71997 12.6735Z" fill="#33835C"/>
<path d="M6 6.9204C6.87629 6.9204 7.58666 6.21003 7.58666 5.33374C7.58666 4.45745 6.87629 3.74707 6 3.74707C5.1237 3.74707 4.41333 4.45745 4.41333 5.33374C4.41333 6.21003 5.1237 6.9204 6 6.9204Z" fill="#33835C"/>
<path d="M10.7933 1.33301H5.20665C2.77998 1.33301 1.33331 2.77967 1.33331 5.20634V10.793C1.33331 11.5197 1.45998 12.153 1.70665 12.6863C2.27998 13.953 3.50665 14.6663 5.20665 14.6663H10.7933C13.22 14.6663 14.6666 13.2197 14.6666 10.793V9.26634V5.20634C14.6666 2.77967 13.22 1.33301 10.7933 1.33301ZM13.58 8.33301C13.06 7.88634 12.22 7.88634 11.7 8.33301L8.92665 10.713C8.40665 11.1597 7.56665 11.1597 7.04665 10.713L6.81998 10.5263C6.34665 10.113 5.59331 10.073 5.05998 10.433L2.56665 12.1063C2.41998 11.733 2.33331 11.2997 2.33331 10.793V5.20634C2.33331 3.32634 3.32665 2.33301 5.20665 2.33301H10.7933C12.6733 2.33301 13.6666 3.32634 13.6666 5.20634V8.40634L13.58 8.33301Z" fill="#33835C"/>
</svg>
