<svg width="16" height="16" viewBox="0 0 16 16" fill="none" xmlns="http://www.w3.org/2000/svg">
<path d="M10.7933 1.33301H5.20665C2.77998 1.33301 1.33331 2.77967 1.33331 5.20634V10.7863C1.33331 13.2197 2.77998 14.6663 5.20665 14.6663H10.7866C13.2133 14.6663 14.66 13.2197 14.66 10.793V5.20634C14.6666 2.77967 13.22 1.33301 10.7933 1.33301ZM10.5 10.4997H5.49998C5.22665 10.4997 4.99998 10.273 4.99998 9.99967C4.99998 9.72634 5.22665 9.49967 5.49998 9.49967H10.5C10.7733 9.49967 11 9.72634 11 9.99967C11 10.273 10.7733 10.4997 10.5 10.4997ZM10.5 6.49967H5.49998C5.22665 6.49967 4.99998 6.27301 4.99998 5.99967C4.99998 5.72634 5.22665 5.49967 5.49998 5.49967H10.5C10.7733 5.49967 11 5.72634 11 5.99967C11 6.27301 10.7733 6.49967 10.5 6.49967Z" fill="#33835C"/>
</svg>
